<svg preserveAspectRatio="none" width="100%" height="100%" overflow="visible" style="display: block;" viewBox="0 0 69.4147 15.878" fill="none" xmlns="http://www.w3.org/2000/svg">
<g id="Group">
<path id="Vector" d="M3.06623e-05 0.0456169H0.447441H11.7751L10.6921 3.41645H7.63651L7.64159 15.1661V15.8677H3.82844C3.82844 15.8677 3.82844 15.7558 3.82844 15.6236V3.41136H0.447441L0.00511487 3.42153L3.06623e-05 0.0456169Z" fill="var(--fill-0, white)"></path>
<path id="Vector_2" d="M31.3899 0.0458038H31.8373H43.4395L42.3565 3.41663H39.0315L39.0366 15.1662V15.878H35.2234C35.2234 15.878 35.2234 15.7611 35.2234 15.6289V3.41663H31.8373L31.3899 3.42172V0.0458038Z" fill="var(--fill-0, white)"></path>
<path id="Vector_3" d="M12.497 5.41981V5.07916H16.2695L16.2746 5.41981L16.2797 14.8764L16.2644 15.8678H12.5174V15.3289L12.497 5.41981Z" fill="var(--fill-0, white)"></path>
<path id="Vector_4" d="M18.0897 0.747378V0H18.8421H21.191H21.8215V0.645694L21.8266 7.3721L25.599 3.7013H30.0986L25.3703 8.29234L30.668 15.8678H26.5091L22.9756 10.6158L21.8571 11.6988V15.8729L18.1049 15.8678V15.5323L18.0897 0.747378Z" fill="var(--fill-0, white)"></path>
<path id="Vector_5" d="M56.8364 0.747378V0H57.5888H59.9378H60.5682V0.645694L60.5733 7.3721L64.3458 3.7013H68.8453L64.117 8.29234L69.4147 15.8678H65.2609L61.7274 10.6158L60.6038 11.6988L60.6089 15.8729L56.8516 15.8678V15.5323L56.8364 0.747378Z" fill="var(--fill-0, white)"></path>
<path id="Vector_6" d="M54.701 6.86375C54.3603 6.08078 53.9028 5.39949 53.3232 4.81989C52.7436 4.24029 52.0623 3.7878 51.2742 3.45733C51.2031 3.42682 51.1319 3.39632 51.0556 3.3709C51.0302 3.36073 50.9997 3.35056 50.9743 3.34039C50.9285 3.32514 50.8828 3.30988 50.837 3.29463C50.8014 3.28446 50.7658 3.26921 50.7353 3.25904C50.6997 3.24887 50.6641 3.23871 50.6285 3.22854C50.5879 3.21837 50.5472 3.20312 50.5014 3.19295C50.4862 3.18786 50.4709 3.18278 50.4557 3.18278C50.2726 3.13702 50.0896 3.09635 49.9015 3.06076C49.8964 3.06076 49.8913 3.06076 49.8812 3.05567C49.8151 3.04551 49.749 3.03534 49.6829 3.02517C49.5405 3.00483 49.3982 2.98958 49.2507 2.97941C49.144 2.96924 49.0321 2.96924 48.9253 2.96416C48.8694 2.96416 48.8135 2.95907 48.7576 2.95907C48.7067 2.95907 48.6559 2.95907 48.605 2.96416C48.4881 2.96924 48.3661 2.96924 48.2491 2.97941C47.9949 2.99975 47.7509 3.03025 47.5068 3.07601C47.4662 3.08618 47.4255 3.09126 47.3848 3.10143C47.3492 3.1116 47.3086 3.11668 47.273 3.12685C47.1865 3.14719 47.1052 3.16753 47.0188 3.18786C46.4646 3.34039 45.946 3.54884 45.4681 3.82847C44.9902 4.10302 44.5529 4.43349 44.1665 4.82498C43.775 5.21646 43.4446 5.64862 43.1649 6.12145C42.8853 6.59428 42.6718 7.11287 42.5142 7.66705C42.3616 8.22123 42.2854 8.80083 42.2854 9.40585C42.2854 10.0058 42.3616 10.5854 42.5192 11.1396C42.6718 11.6937 42.8904 12.2072 43.17 12.6852C43.4496 13.1631 43.7852 13.5952 44.1716 13.9867C44.5631 14.3782 44.9952 14.7087 45.4732 14.9883C45.9511 15.2679 46.4697 15.4815 47.0238 15.6289C47.1154 15.6543 47.2018 15.6747 47.2933 15.695C47.3238 15.7001 47.3543 15.7103 47.3848 15.7154C47.4458 15.7306 47.5068 15.7408 47.5679 15.7509C47.6034 15.756 47.639 15.7662 47.6797 15.7713C47.7407 15.7814 47.8017 15.7916 47.8678 15.7967C47.8983 15.8018 47.9288 15.8069 47.9644 15.812C48.061 15.8221 48.1627 15.8323 48.2644 15.8425C48.3915 15.8526 48.5186 15.8577 48.6457 15.8577C48.6864 15.8577 48.727 15.8577 48.7677 15.8577C48.8084 15.8577 48.8491 15.8577 48.8847 15.8577C49.0118 15.8526 49.1389 15.8526 49.266 15.8425C49.3829 15.8323 49.5049 15.8221 49.6219 15.8069C49.6981 15.7967 49.7693 15.7865 49.8456 15.7764C49.8862 15.7713 49.9269 15.7611 49.9676 15.756C50.0184 15.7459 50.0744 15.7357 50.1252 15.7255C50.1557 15.7204 50.1913 15.7103 50.2218 15.7052C50.3082 15.6848 50.3947 15.6645 50.4811 15.6391C51.0302 15.4866 51.5437 15.273 52.0216 14.9985C52.4995 14.7188 52.9368 14.3884 53.3232 13.9969C53.7147 13.6054 54.0451 13.1732 54.3248 12.6953C54.6044 12.2174 54.8179 11.7039 54.9755 11.1497C55.1331 10.5956 55.2043 10.021 55.2043 9.41602C55.2094 8.49069 55.0416 7.64671 54.701 6.86375ZM51.7776 10.2447C51.7013 10.5142 51.5996 10.7633 51.4624 10.9972C51.3251 11.2311 51.1624 11.4395 50.9743 11.6276C50.7862 11.8158 50.5726 11.9785 50.3438 12.1157C50.11 12.253 49.8608 12.3547 49.5965 12.4259C49.3677 12.4869 49.1287 12.5225 48.8847 12.5326C48.8999 12.5326 48.9101 12.5326 48.9253 12.5326C48.8999 12.5326 48.8745 12.5377 48.844 12.5377C48.8287 12.5377 48.8135 12.5377 48.8033 12.5377C48.7931 12.5377 48.7779 12.5377 48.7677 12.5377C48.5898 12.5377 48.422 12.5225 48.2542 12.497C48.1424 12.4818 48.0356 12.4564 47.9288 12.431C47.6594 12.3598 47.4102 12.253 47.1764 12.1208C46.9425 11.9835 46.734 11.8259 46.5408 11.6327C46.3527 11.4446 46.19 11.2311 46.0528 11.0023C45.9155 10.7684 45.8138 10.5193 45.7375 10.2498C45.6613 9.98036 45.6257 9.70073 45.6257 9.40585C45.6257 9.11097 45.6613 8.83133 45.7375 8.56187C45.8138 8.29241 45.9155 8.04328 46.0528 7.80941C46.19 7.58062 46.3527 7.36708 46.5408 7.17897C46.729 6.99085 46.9425 6.82816 47.1713 6.69597C47.4052 6.56378 47.6543 6.45701 47.9237 6.38583C48.0356 6.35532 48.1475 6.33499 48.2593 6.31465C48.422 6.28923 48.5898 6.27398 48.7626 6.27398C48.7779 6.27398 48.7931 6.27398 48.8084 6.27398C48.8186 6.27398 48.8338 6.27398 48.844 6.27398C48.8745 6.27398 48.905 6.27398 48.9355 6.27398C48.9253 6.27398 48.9152 6.27398 48.905 6.27398C49.2863 6.28923 49.6473 6.37058 49.9879 6.51294C50.3692 6.67563 50.6997 6.89425 50.9844 7.17388C51.2641 7.45351 51.4878 7.78399 51.6556 8.1653C51.8182 8.54662 51.8996 8.95844 51.9047 9.40076C51.8894 9.69565 51.8538 9.98036 51.7776 10.2447Z" fill="var(--fill-0, white)"></path>
<path id="Vector_7" d="M16.2847 1.94221C16.2847 2.98956 15.4357 3.83862 14.3883 3.83862C13.341 3.83862 12.4919 2.98956 12.4919 1.94221C12.4919 0.894867 13.341 0.0458038 14.3883 0.0458038C15.4357 0.0458038 16.2847 0.894867 16.2847 1.94221Z" fill="var(--fill-0, white)"></path>
</g>
</svg>